<svg xmlns="http://www.w3.org/2000/svg" xmlns:xlink="http://www.w3.org/1999/xlink" width="500" zoomAndPan="magnify" viewBox="0 0 375 374.999991" height="500" preserveAspectRatio="xMidYMid meet" version="1.0"><defs><g/><clipPath id="id1"><path d="M 93.054688 124.324219 L 214.554688 124.324219 L 214.554688 246 L 93.054688 246 Z M 93.054688 124.324219 " clip-rule="nonzero"/></clipPath></defs><g clip-path="url(#id1)"><path fill="#666666" d="M 155.371094 158.316406 C 155.570312 158.765625 155.816406 159.074219 156.242188 159.066406 C 156.382812 159 156.996094 158.429688 158.542969 158.769531 C 160.023438 159.710938 159.511719 159.6875 160.578125 160.550781 C 159.960938 160.789062 158.851562 159.425781 157.59375 159.832031 C 156.726562 160.113281 156.785156 160 156.203125 160.257812 C 155.636719 159.949219 155.378906 159.277344 155.371094 158.316406 Z M 156.871094 161.390625 L 156.3125 162.148438 L 157.875 162.011719 C 158.847656 162.105469 158.949219 162.820312 160.425781 162.703125 C 159.03125 161.9375 158.621094 160.527344 156.726562 160.550781 C 156.421875 160.746094 156.988281 161.066406 156.871094 161.390625 Z M 155.085938 155.566406 C 155.125 155.566406 155.167969 155.566406 155.207031 155.5625 C 154.894531 155.355469 154.6875 154.992188 154.6875 154.578125 C 154.6875 153.984375 155.117188 153.492188 155.671875 153.429688 C 155.503906 153.316406 155.300781 153.253906 155.085938 153.253906 C 154.476562 153.253906 153.984375 153.773438 153.984375 154.410156 C 153.984375 155.050781 154.476562 155.566406 155.085938 155.566406 Z M 159.410156 156.269531 C 159.449219 156.269531 159.488281 156.265625 159.527344 156.261719 C 159.214844 156.058594 159.011719 155.695312 159.011719 155.28125 C 159.011719 154.683594 159.441406 154.191406 159.996094 154.128906 C 159.824219 154.019531 159.625 153.953125 159.410156 153.953125 C 158.800781 153.953125 158.304688 154.472656 158.304688 155.113281 C 158.304688 155.75 158.800781 156.269531 159.410156 156.269531 Z M 163.410156 157.539062 C 163.449219 157.539062 163.492188 157.539062 163.53125 157.535156 C 163.21875 157.332031 163.011719 156.964844 163.011719 156.554688 C 163.011719 155.957031 163.441406 155.464844 163.996094 155.402344 C 163.824219 155.292969 163.625 155.226562 163.410156 155.226562 C 162.800781 155.226562 162.308594 155.746094 162.308594 156.382812 C 162.308594 157.023438 162.800781 157.539062 163.410156 157.539062 Z M 167.578125 159.488281 C 167.617188 159.488281 167.65625 159.488281 167.695312 159.484375 C 167.386719 159.277344 167.175781 158.914062 167.175781 158.5 C 167.175781 157.90625 167.609375 157.414062 168.164062 157.351562 C 167.992188 157.238281 167.792969 157.175781 167.578125 157.175781 C 166.96875 157.175781 166.472656 157.695312 166.472656 158.332031 C 166.472656 158.96875 166.96875 159.488281 167.578125 159.488281 Z M 170.964844 161.375 C 171.003906 161.375 171.042969 161.371094 171.082031 161.367188 C 170.773438 161.164062 170.5625 160.800781 170.5625 160.386719 C 170.5625 159.789062 170.996094 159.296875 171.546875 159.238281 C 171.378906 159.125 171.179688 159.058594 170.964844 159.058594 C 170.355469 159.058594 169.859375 159.578125 169.859375 160.21875 C 169.859375 160.855469 170.355469 161.375 170.964844 161.375 Z M 174.53125 163.871094 C 174.570312 163.871094 174.609375 163.867188 174.648438 163.863281 C 174.335938 163.660156 174.128906 163.296875 174.128906 162.882812 C 174.128906 162.285156 174.558594 161.792969 175.113281 161.730469 C 174.945312 161.621094 174.742188 161.554688 174.53125 161.554688 C 173.921875 161.554688 173.425781 162.074219 173.425781 162.710938 C 173.425781 163.351562 173.921875 163.871094 174.53125 163.871094 Z M 214.558594 245.125 C 178.25 233.304688 165.746094 250.292969 127.453125 230.558594 C 105.058594 213.535156 97.152344 186.769531 93.058594 162.199219 C 101.019531 154.714844 121.308594 151.765625 132.816406 154.457031 L 135.183594 175.136719 L 135.203125 175.132812 C 135.402344 165.707031 135.351562 154.953125 132.195312 138.277344 L 139.523438 124.347656 L 147.539062 136.296875 C 146.484375 150.304688 145.175781 162.566406 144.3125 172.390625 C 145.054688 172.144531 145.828125 171.96875 146.648438 171.90625 C 146.703125 169.496094 149.515625 168.949219 149.515625 168.949219 C 149.515625 168.949219 149.214844 168.042969 150.1875 167.425781 L 150.546875 166.066406 C 150.164062 165.285156 149.054688 165.402344 148.960938 164.464844 L 151.5625 160.503906 C 151.1875 158.980469 150.4375 159.414062 150.835938 157.046875 C 149.808594 155.476562 151.351562 151.789062 153 151.042969 C 156.671875 143.984375 165.832031 142.808594 172.714844 143.472656 C 177.519531 149.660156 179.539062 156.789062 177.921875 161.941406 C 178.011719 164.425781 177.855469 166.613281 176.703125 167.695312 C 176.503906 169.816406 176.535156 171.71875 175.761719 174.046875 C 175.503906 174.816406 175.1875 175.171875 174.839844 175.128906 C 179.9375 178.136719 178.828125 179.703125 178.8125 182.902344 C 181.574219 184.269531 184.679688 185.921875 190.40625 190.433594 C 193.0625 192.519531 194.457031 202.636719 194.285156 206.109375 C 202.441406 214.832031 201.125 221 201.125 227.523438 C 209.234375 232.472656 214.296875 238.191406 214.558594 245.125 Z M 191.792969 206.074219 C 185.34375 201.589844 169.582031 200.296875 166.152344 197.152344 C 166.320312 198.675781 166.707031 199.621094 167.078125 200.605469 C 166.144531 199.945312 162.90625 195.328125 163.765625 191.238281 C 163.824219 190.054688 164.449219 188.9375 165.605469 187.101562 C 163.613281 187.34375 162.460938 187.40625 161.777344 187.367188 C 161.375 188.078125 160.585938 188.554688 159.691406 188.53125 C 159.304688 188.523438 158.941406 188.421875 158.621094 188.25 C 158.847656 193.605469 158.910156 195.757812 162.070312 200.71875 L 187.578125 212.242188 C 189.0625 215.90625 190.207031 219.46875 188.726562 222.214844 L 194.066406 224.363281 C 194.234375 221.078125 195.792969 214.113281 193.074219 208.242188 C 197.984375 214.644531 194.78125 220.617188 196.074219 225.171875 L 198.988281 226.347656 C 198.988281 226.347656 201.929688 213.125 191.792969 206.074219 Z M 152.035156 199.09375 L 149.476562 198.320312 C 150.394531 199.511719 150.835938 200.605469 153.992188 202.261719 L 160.914062 202.066406 C 158.535156 200.414062 157.304688 195.882812 157.0625 187.578125 C 155.242188 187.070312 153.785156 186.800781 152.585938 186.679688 C 150.5 190.40625 147.933594 190.234375 145.40625 192.777344 C 146.761719 192.730469 148.746094 191.519531 152 190.398438 C 151.234375 191.78125 151.402344 197.929688 152.035156 199.09375 Z M 147.609375 185.144531 C 147.109375 185.738281 146.523438 186.195312 146.121094 186.421875 C 145.429688 186.808594 144.222656 187.597656 143.441406 187.460938 L 142.945312 192.8125 C 144.503906 190.332031 148.570312 190.144531 151.226562 186.597656 C 151.214844 186.597656 151.203125 186.59375 151.195312 186.59375 C 150.835938 186.792969 150.425781 186.910156 149.984375 186.910156 C 148.851562 186.910156 147.898438 186.160156 147.609375 185.144531 Z M 149.914062 185.886719 C 150.746094 185.886719 151.417969 185.261719 151.417969 184.492188 C 151.417969 183.722656 150.746094 183.097656 149.914062 183.097656 C 149.082031 183.097656 148.40625 183.722656 148.40625 184.492188 C 148.40625 185.261719 149.082031 185.886719 149.914062 185.886719 Z M 167.070312 179.304688 C 163.179688 181.757812 157.351562 180.738281 155.519531 183.976562 C 155.480469 183.960938 155.441406 183.9375 155.402344 183.917969 C 154.636719 180.011719 152.5625 176.9375 151.953125 176.757812 C 150.496094 177.417969 153.722656 180.390625 153.46875 183.890625 C 154.636719 183.992188 155.863281 184.199219 157.125 184.554688 C 159.183594 182.371094 166.1875 181.265625 169.691406 179.71875 C 170.175781 178.261719 170.132812 177.59375 169.363281 177.003906 C 168.046875 177.398438 167.136719 177.554688 166.800781 177.359375 C 166.84375 178.289062 166.917969 179.023438 167.070312 179.304688 Z M 158.097656 186.300781 C 158.097656 187.085938 158.789062 187.726562 159.640625 187.726562 C 160.496094 187.726562 161.1875 187.085938 161.1875 186.300781 C 161.1875 185.511719 160.496094 184.875 159.640625 184.875 C 158.789062 184.875 158.097656 185.511719 158.097656 186.300781 Z M 152.675781 184.695312 C 152.5625 185.363281 152.367188 185.714844 152.117188 185.859375 C 153.34375 185.851562 155.542969 186.207031 157.308594 186.777344 C 157.078125 186.382812 157.082031 185.972656 157.34375 185.546875 C 155.261719 184.957031 153.722656 184.710938 152.675781 184.695312 Z M 155.222656 213.34375 C 163.394531 216.84375 169.050781 225.441406 186.425781 221.230469 C 187.796875 220.898438 188.292969 216.941406 186.203125 213.183594 C 178.023438 210.511719 170.453125 206.324219 166.726562 205.355469 L 156.285156 204.265625 C 157.339844 206.84375 156.820312 212.128906 155.222656 213.34375 Z M 167.574219 187.246094 C 165.769531 188.992188 165.425781 191.429688 166.578125 195.140625 C 172.761719 200.207031 181.179688 198.679688 192.128906 204.113281 C 192.070312 200.859375 191.289062 195.253906 189.035156 192.101562 C 187.9375 190.566406 181.097656 186.503906 178.296875 185.023438 C 175.191406 187.664062 170.480469 186.171875 167.574219 187.246094 Z M 171.308594 176.804688 C 171.964844 178.296875 171.238281 179.355469 170.878906 180.769531 C 167.910156 181.351562 163.226562 182.566406 160.480469 184.167969 C 161.417969 184.472656 162.082031 185.339844 162.058594 186.347656 C 162.058594 186.371094 162.054688 186.390625 162.054688 186.414062 C 164.875 185.609375 170.671875 184.984375 175.171875 184.484375 C 176.746094 184.019531 177.234375 182.085938 176.738281 179.476562 C 173.683594 175.25 172.242188 176.957031 171.308594 176.804688 Z M 171.886719 145.0625 C 169.730469 146.300781 167.753906 147.871094 165.664062 153.773438 C 169.261719 155.207031 172.804688 157.210938 176.417969 159.90625 C 177.265625 156.117188 175.476562 149.199219 171.886719 145.0625 Z M 155.152344 151.136719 C 158.257812 151.503906 161.246094 152.179688 164.191406 153.21875 C 166.246094 148.261719 168.21875 145.300781 171.375 144.890625 C 165.324219 144.605469 159.109375 145.027344 155.152344 151.136719 Z M 151.671875 155.785156 C 158.085938 155.503906 166.84375 158.054688 175.582031 166.125 C 176.222656 165.210938 176.492188 164.292969 176.421875 162.085938 C 175.3125 160.042969 163.53125 152.824219 153.796875 152.441406 C 152.476562 152.980469 151.691406 154.851562 151.671875 155.785156 Z M 153.726562 171.664062 C 155.5 171.789062 157.015625 171.613281 160.007812 170.992188 C 161.6875 169.773438 162.285156 168.507812 163.027344 167.128906 C 161.445312 167.464844 160.667969 167.261719 160.257812 166.816406 C 160.753906 168.246094 160.011719 170.328125 159.628906 170.382812 C 160.082031 167.300781 158.496094 167.71875 158.832031 164.886719 C 160.417969 166.511719 162.253906 166.03125 163.789062 164.980469 C 164.011719 163.945312 163.734375 162.207031 163.019531 159.832031 C 157.765625 157.160156 154.816406 156.984375 152.554688 157.097656 L 152.21875 158.269531 C 151.855469 159.039062 153.511719 159.371094 153.222656 160.203125 L 150.429688 164.257812 C 151.769531 164.390625 152.882812 165.875 154.984375 165.660156 C 155.074219 166.730469 153.886719 166.855469 151.679688 166.355469 L 151.394531 167.664062 L 152.539062 167.667969 C 154.039062 168.625 154.667969 169.296875 154.957031 169.855469 C 152.449219 168.394531 151.898438 169.105469 151.160156 168.441406 C 151.097656 168.425781 151.035156 168.417969 150.980469 168.417969 C 150.261719 168.398438 149.683594 169.464844 153.589844 170.464844 C 153.066406 170.84375 152.746094 171.207031 150.160156 169.828125 C 148.882812 170.5 150.816406 171.457031 153.726562 171.664062 Z M 149.265625 171.210938 C 149.277344 171.222656 149.289062 171.230469 149.304688 171.238281 C 148.542969 172.519531 148.8125 173.664062 150.1875 174.675781 C 152.984375 175.8125 156.050781 175.289062 160.136719 174.269531 C 158.792969 175.28125 157.78125 176.679688 153.183594 176.0625 C 153.191406 177.269531 159.644531 177.886719 162.933594 177.289062 C 161.679688 178.359375 159.925781 179.53125 154.527344 178.332031 C 155.25 179.46875 156.011719 180.535156 156.113281 182.144531 C 156.570312 181.726562 157.992188 180.714844 160.414062 180.296875 C 162.027344 180.019531 163.625 180.40625 165.75 178.804688 C 165.132812 177.640625 166.207031 173.972656 167.761719 170.234375 C 168.492188 171.738281 168.40625 173.507812 167.191406 175.644531 C 169.277344 175.925781 171.019531 175.148438 173.476562 174.175781 C 174.144531 172.949219 174.515625 171.542969 174.902344 167.445312 C 173.351562 165.824219 171.882812 164.582031 170.953125 164.222656 C 170.449219 166.695312 171.039062 170.332031 169.929688 171.445312 C 170.015625 168.515625 169.09375 168.472656 169.921875 163.390625 C 169.578125 162.820312 168.347656 162.144531 167.628906 161.765625 C 167.546875 171.667969 166.226562 170.660156 165.320312 172.640625 L 163.269531 173.578125 L 164.65625 171.410156 C 165.640625 168.996094 166.574219 166.449219 166.488281 161.273438 L 164.796875 160.359375 C 166.082031 165.582031 164.09375 170.695312 159.660156 172.230469 C 157.425781 173.003906 151.675781 172.777344 149.265625 171.210938 Z M 149.085938 171.085938 C 149.058594 171.066406 149.03125 171.046875 149.003906 171.027344 C 149.03125 171.046875 149.058594 171.066406 149.085938 171.085938 Z M 145.207031 174.785156 C 145.425781 176.640625 145.980469 178.980469 147.886719 183.234375 C 148.320312 182.546875 149.097656 182.085938 149.984375 182.085938 C 151.101562 182.085938 152.046875 182.820312 152.347656 183.824219 C 152.382812 183.824219 152.417969 183.824219 152.453125 183.828125 C 151.546875 179.300781 149.265625 177.363281 150.578125 176.179688 C 148.875 175.492188 147.648438 174.5625 147.035156 173.328125 C 145.453125 173.5 145.160156 174.171875 145.207031 174.785156 Z M 144.140625 176.253906 L 143.71875 185.878906 C 144.335938 186.023438 145.285156 185.636719 146.789062 184.355469 C 145.175781 182.117188 144.457031 179.253906 144.140625 176.253906 Z M 138.589844 192.644531 C 139.464844 193.128906 140.472656 193.277344 141.394531 192.65625 C 142.03125 175.183594 143.816406 156.972656 145.796875 136.652344 L 140.007812 128.515625 Z M 137.753906 178.925781 C 137.824219 164.761719 138.21875 150.183594 138.035156 131.59375 L 134.777344 138.9375 C 136.773438 153.1875 137.4375 165.832031 137.753906 178.925781 Z M 135.0625 196.367188 C 137.25 195.546875 144.074219 196.253906 150.375 197.304688 C 149.664062 195.066406 150.117188 193.976562 150.496094 192.550781 C 146.019531 194.5 139.035156 194.488281 135.144531 193.640625 Z M 135.6875 200.78125 L 141.628906 201.421875 C 142.433594 201.992188 142.324219 202.359375 141.765625 202.582031 L 135.914062 202.042969 C 135.046875 202.824219 134.714844 203.648438 136.023438 204.648438 L 141.6875 205.242188 C 142.425781 205.828125 142.457031 206.222656 141.875 206.378906 L 136.335938 205.699219 C 135.578125 205.957031 135.402344 208.257812 136.566406 208.304688 L 141.832031 208.703125 C 142.207031 209.019531 142.527344 209.410156 141.804688 209.804688 L 136.875 209.566406 C 136.214844 210.359375 135.84375 211.535156 137.152344 211.714844 L 143.402344 212.527344 C 144.492188 213.140625 149.738281 211.785156 153.554688 212.632812 C 155.367188 210.367188 155.171875 208.078125 154.398438 204.019531 C 150.964844 202.828125 148.78125 198.910156 145.828125 198.171875 L 135.679688 197.871094 C 134.75 198.945312 134.710938 199.988281 135.6875 200.78125 Z M 139.253906 213.574219 C 137.445312 213.574219 135.976562 215.050781 135.976562 216.867188 C 135.976562 218.683594 137.445312 220.160156 139.253906 220.160156 C 141.0625 220.160156 142.53125 218.683594 142.53125 216.867188 C 142.53125 215.050781 141.0625 213.574219 139.253906 213.574219 Z M 122.664062 223.132812 C 126.9375 207.238281 126.929688 183.636719 123.027344 163.84375 C 109.257812 163.707031 100.835938 166.136719 96.742188 168.914062 C 100.523438 186.816406 105.511719 205.84375 122.664062 223.132812 Z M 130.140625 156.519531 C 129.765625 155.144531 104.007812 155.324219 95.554688 163.207031 C 95.8125 164.449219 96.070312 165.699219 96.332031 166.957031 C 101.503906 163.957031 109.929688 162.148438 124.523438 161.941406 C 130.460938 191.558594 127.644531 218.667969 123.125 223.597656 C 124.121094 224.585938 125.15625 225.570312 126.238281 226.550781 C 135.535156 209.632812 134.933594 182.828125 130.140625 156.519531 Z M 211.761719 241.964844 C 205.230469 230.296875 190.234375 225.753906 186.253906 224.527344 C 175.320312 225.050781 166.015625 224.949219 153.699219 214.90625 C 150.78125 214.808594 147.730469 214.609375 145.949219 214.824219 C 154.191406 225.960938 174.457031 225.757812 185.089844 231.40625 C 167.558594 227.019531 154.15625 230.253906 144.507812 219.039062 C 143.503906 221.183594 141.199219 222.625 139.171875 222.597656 C 136.882812 222.5625 133.59375 221.027344 133.527344 217.128906 L 128.726562 228.351562 C 158.488281 245.492188 187.09375 233.539062 211.761719 241.964844 Z M 211.761719 241.964844 " fill-opacity="1" fill-rule="evenodd"/></g><g fill="#273026" fill-opacity="1"><g transform="translate(180.707102, 178.515941)"><g><path d="M 2.359375 -31.046875 L 2.359375 0 L 6.519531 0 L 6.519531 -13.464844 L 9.605469 -13.464844 L 10.636719 -15.523438 L 6.519531 -15.523438 L 6.519531 -28.992188 L 10.636719 -28.992188 L 11.664062 -31.046875 Z M 2.359375 -31.046875 "/></g></g></g><g fill="#273026" fill-opacity="1"><g transform="translate(193.656514, 178.515941)"><g><path d="M 4.460938 -21.742188 L 0.859375 0 L 2.917969 0 L 3.773438 -5.1875 L 7.246094 -5.1875 L 8.105469 0 L 12.222656 0 L 8.105469 -24.832031 L 3.945312 -24.832031 Z M 6.90625 -7.246094 L 4.117188 -7.246094 L 5.53125 -15.523438 Z M 6.90625 -7.246094 "/></g></g></g><g fill="#273026" fill-opacity="1"><g transform="translate(206.734569, 178.515941)"><g><path d="M 2.746094 -21.742188 L 2.746094 0 L 6.90625 0 L 6.90625 -10.335938 C 7.160156 -10.335938 7.332031 -10.335938 7.503906 -10.378906 L 9.992188 0 L 14.152344 0 L 11.40625 -11.277344 C 12.308594 -11.792969 12.996094 -12.523438 13.464844 -13.550781 C 13.894531 -14.539062 14.152344 -15.867188 14.152344 -17.582031 C 14.152344 -18.957031 13.980469 -20.070312 13.679688 -21.011719 C 13.378906 -21.957031 12.910156 -22.6875 12.308594 -23.242188 C 11.707031 -23.800781 10.9375 -24.1875 10.035156 -24.445312 C 9.132812 -24.703125 8.105469 -24.832031 6.90625 -24.832031 L 1.714844 -24.832031 Z M 6.90625 -12.351562 L 6.90625 -22.859375 C 7.589844 -22.816406 8.148438 -22.644531 8.578125 -22.34375 C 9.003906 -22.042969 9.390625 -21.65625 9.648438 -21.140625 C 9.90625 -20.628906 10.078125 -20.070312 10.164062 -19.46875 C 10.25 -18.871094 10.335938 -18.226562 10.335938 -17.582031 C 10.335938 -16.898438 10.25 -16.253906 10.164062 -15.652344 C 10.078125 -15.050781 9.90625 -14.496094 9.648438 -13.980469 C 9.390625 -13.464844 9.003906 -13.078125 8.578125 -12.78125 C 8.148438 -12.480469 7.589844 -12.351562 6.90625 -12.351562 Z M 6.90625 -12.351562 "/></g></g></g><g fill="#273026" fill-opacity="1"><g transform="translate(222.599753, 178.515941)"><g><path d="M 2.144531 -24.832031 L 2.144531 0 L 11.449219 0 L 11.449219 -2.058594 L 6.304688 -2.058594 L 6.304688 -13.464844 L 9.390625 -13.464844 L 10.421875 -15.523438 L 6.304688 -15.523438 L 6.304688 -22.773438 L 10.421875 -22.773438 L 11.449219 -24.832031 Z M 2.144531 -24.832031 "/></g></g></g><g fill="#273026" fill-opacity="1"><g transform="translate(235.334772, 178.515941)"><g><path d="M 6.003906 0 C 6.691406 0 7.332031 -0.128906 7.976562 -0.429688 C 8.578125 -0.6875 9.132812 -1.113281 9.605469 -1.628906 C 10.078125 -2.144531 10.464844 -2.746094 10.722656 -3.472656 C 10.980469 -4.203125 11.0625 -5.015625 11.0625 -5.917969 C 11.0625 -7.160156 10.808594 -8.320312 10.335938 -9.390625 C 9.820312 -10.421875 9.261719 -11.449219 8.621094 -12.394531 C 7.976562 -13.335938 7.375 -14.28125 6.777344 -15.179688 C 6.175781 -16.082031 5.746094 -17.023438 5.53125 -17.96875 C 5.445312 -18.3125 5.402344 -18.65625 5.402344 -19.039062 C 5.402344 -19.769531 5.53125 -20.371094 5.875 -20.886719 C 6.21875 -21.398438 6.648438 -21.65625 7.246094 -21.65625 C 7.503906 -21.65625 7.761719 -21.570312 8.019531 -21.441406 C 8.277344 -21.269531 8.492188 -21.097656 8.707031 -20.929688 C 8.878906 -20.757812 9.046875 -20.585938 9.175781 -20.457031 L 9.347656 -20.242188 L 11.019531 -21.613281 C 10.9375 -21.742188 10.765625 -22 10.550781 -22.34375 C 10.292969 -22.6875 9.992188 -23.070312 9.605469 -23.414062 C 9.21875 -23.757812 8.75 -24.101562 8.191406 -24.402344 C 7.632812 -24.660156 7.03125 -24.832031 6.347656 -24.832031 C 5.617188 -24.832031 4.933594 -24.660156 4.332031 -24.402344 C 3.6875 -24.101562 3.128906 -23.714844 2.703125 -23.199219 C 2.230469 -22.6875 1.886719 -22.042969 1.628906 -21.3125 C 1.371094 -20.585938 1.242188 -19.769531 1.285156 -18.914062 C 1.285156 -17.625 1.5 -16.46875 2.015625 -15.4375 C 2.488281 -14.367188 3.042969 -13.335938 3.6875 -12.394531 C 4.332031 -11.449219 4.976562 -10.507812 5.574219 -9.605469 C 6.175781 -8.707031 6.5625 -7.804688 6.820312 -6.863281 C 6.863281 -6.691406 6.90625 -6.519531 6.90625 -6.347656 L 6.90625 -5.875 C 6.90625 -5.101562 6.734375 -4.460938 6.390625 -3.945312 C 6.046875 -3.429688 5.617188 -3.171875 5.058594 -3.171875 C 4.761719 -3.171875 4.503906 -3.214844 4.289062 -3.386719 C 4.03125 -3.515625 3.816406 -3.6875 3.644531 -3.859375 C 3.386719 -4.03125 3.171875 -4.289062 3 -4.589844 L 1.328125 -3.214844 C 1.414062 -3.042969 1.542969 -2.789062 1.800781 -2.445312 C 2.015625 -2.101562 2.316406 -1.714844 2.703125 -1.371094 C 3.085938 -1.027344 3.558594 -0.6875 4.117188 -0.429688 C 4.675781 -0.128906 5.316406 0 6.003906 0 Z M 6.003906 0 "/></g></g></g><g fill="#666666" fill-opacity="1"><g transform="translate(247.689423, 186.32262)"><g><path d="M 4.15625 -22.117188 L 4.15625 0 L 7.296875 0 L 7.296875 -22.117188 L 10.46875 -22.117188 L 10.46875 -23.6875 L 0.980469 -23.6875 L 0.980469 -22.117188 Z M 4.15625 -22.117188 "/></g></g></g><g fill="#666666" fill-opacity="1"><g transform="translate(259.13689, 186.32262)"><g><path d="M 1.800781 -18.941406 L 1.800781 0 L 4.972656 0 L 4.972656 -10.273438 L 8.113281 -10.273438 L 8.113281 0 L 11.285156 0 L 11.285156 -18.941406 L 8.113281 -18.941406 L 8.113281 -11.84375 L 4.972656 -11.84375 L 4.972656 -18.941406 Z M 1.800781 -18.941406 "/></g></g></g><g fill="#666666" fill-opacity="1"><g transform="translate(272.219706, 186.32262)"><g><path d="M 1.636719 -18.941406 L 1.636719 0 L 8.734375 0 L 8.734375 -1.570312 L 4.808594 -1.570312 L 4.808594 -10.273438 L 7.164062 -10.273438 L 7.949219 -11.84375 L 4.808594 -11.84375 L 4.808594 -17.371094 L 7.949219 -17.371094 L 8.734375 -18.941406 Z M 1.636719 -18.941406 "/></g></g></g><g fill="#273026" fill-opacity="1"><g transform="translate(222.398428, 219.82043)"><g><path d="M 3.546875 -37.46875 L 3.546875 0 L 8.921875 0 C 16.019531 0 19.621094 -6.707031 19.621094 -20.0625 C 19.621094 -33.367188 16.019531 -40.074219 8.921875 -40.128906 L 2.21875 -40.128906 Z M 8.921875 -3.269531 L 8.921875 -36.800781 C 10.640625 -36.691406 11.917969 -35.359375 12.804688 -32.757812 C 13.691406 -30.097656 14.132812 -25.882812 14.132812 -20.0625 C 14.132812 -14.1875 13.691406 -9.976562 12.804688 -7.371094 C 11.917969 -4.710938 10.640625 -3.382812 8.921875 -3.269531 Z M 8.921875 -3.269531 "/></g></g></g><g fill="#273026" fill-opacity="1"><g transform="translate(243.678944, 219.82043)"><g><path d="M 2.769531 -32.089844 L 2.769531 0 L 14.796875 0 L 14.796875 -2.660156 L 8.148438 -2.660156 L 8.148438 -17.402344 L 12.136719 -17.402344 L 13.46875 -20.0625 L 8.148438 -20.0625 L 8.148438 -29.429688 L 13.46875 -29.429688 L 14.796875 -32.089844 Z M 2.769531 -32.089844 "/></g></g></g><g fill="#273026" fill-opacity="1"><g transform="translate(260.138099, 219.82043)"><g><path d="M 1.109375 -32.089844 L 6.484375 0 L 11.804688 0 L 17.183594 -32.089844 L 14.464844 -32.089844 L 10.476562 -8.035156 L 6.484375 -32.089844 Z M 1.109375 -32.089844 "/></g></g></g><g fill="#273026" fill-opacity="1"><g transform="translate(37.511721, 240.374984)"><g><path d="M 6.582031 -41.207031 L 54.238281 -25.40625 L 54.238281 -38.046875 L 16.0625 -50.816406 L 54.238281 -63.453125 L 54.238281 -69.90625 L 6.582031 -53.976562 Z M 6.582031 -41.207031 "/></g></g></g><g fill="#273026" fill-opacity="1"><g transform="translate(276.515612, 239.999984)"><g><path d="M 6.601562 -38.148438 L 6.601562 -25.476562 L 54.382812 -41.316406 L 54.382812 -54.121094 L 6.601562 -70.09375 L 6.601562 -63.625 L 44.878906 -50.953125 Z M 6.601562 -38.148438 "/></g></g></g></svg>